<svg width="90" height="30" viewBox="0 0 90 30" xmlns="http://www.w3.org/2000/svg">
    <path fill-rule="evenodd" clip-rule="evenodd"
          d="M66.247 21.1191C66.7285 21.1191 67.3047 20.9981 67.9139 20.7687C68.7694 20.4469 69.7198 20.85 70.0774 21.687C70.257 22.1072 70.2591 22.5709 70.0838 22.9927C69.9074 23.4176 69.5737 23.7468 69.1449 23.9198C68.105 24.3386 67.1574 24.542 66.247 24.542C64.1925 24.542 62.6574 23.9143 61.6839 22.6762C60.8378 21.5997 60.4264 20.0848 60.4264 18.0449V8.87555H58.3776C57.4687 8.87555 56.7293 8.13924 56.7293 7.23423C56.7293 6.32923 57.4687 5.59291 58.3776 5.59291H60.4264V1.76399C60.4264 0.857615 61.109 0.1033 62.0145 0.0093359C62.5109 -0.0419283 63.012 0.11956 63.3838 0.453584C63.7562 0.787608 63.9695 1.26512 63.9695 1.76399V5.59291H68.2365C69.1454 5.59291 69.8846 6.32923 69.8846 7.23423C69.8846 8.13924 69.1454 8.87555 68.2365 8.87555H63.9695V18.0449C63.9695 20.4297 64.4802 21.1191 66.247 21.1191ZM74.143 14.8914C74.143 18.4057 76.6333 20.9565 80.0644 20.9565C81.952 20.9565 83.5259 20.3105 84.6155 19.0881C85.5923 17.993 86.1298 16.5085 86.1298 14.9083C86.1298 11.9953 84.232 8.86 80.0644 8.86C76.6333 8.86 74.143 11.3965 74.143 14.8914ZM85.9859 7.38054C85.9859 6.41583 86.774 5.63098 87.743 5.63098C88.7117 5.63098 89.5 6.41583 89.5 7.38054V22.4024C89.5 23.3673 88.7117 24.152 87.743 24.152C86.774 24.152 85.9859 23.3673 85.9859 22.4024V22.2227C84.3848 23.6554 82.3507 24.422 80.0644 24.422C74.6855 24.422 70.629 20.3247 70.629 14.8914C70.629 9.49664 74.6855 5.42853 80.0644 5.42853C82.3331 5.42853 84.4314 6.21512 85.9859 7.57728V7.38054ZM47.4918 5.35155C42.7331 5.35155 38.8617 9.20666 38.8617 13.9452V14.0791C38.8617 15.0981 39.6914 15.9243 40.7147 15.9243C41.738 15.9243 42.5677 15.0981 42.5677 14.0791V13.9452C42.5677 11.2415 44.7768 9.04182 47.4918 9.04182C50.2071 9.04182 52.4162 11.2415 52.4162 13.9452V22.3673C52.4162 23.3862 53.2459 24.2125 54.2692 24.2125C55.2925 24.2125 56.1222 23.3862 56.1222 22.3673V13.9452C56.1222 9.20666 52.2507 5.35155 47.4918 5.35155ZM37.8167 20.2543C37.9517 19.2445 38.8814 18.5345 39.8977 18.6684C40.9122 18.8026 41.6254 19.7304 41.4905 20.7404C41.1416 23.3561 39.2823 26.021 36.5169 27.8692C34.4395 29.2576 32.1282 30 30.0203 30C29.3181 30 28.6389 29.9177 27.9981 29.7494C27.0085 29.4896 26.4179 28.4802 26.6789 27.4948C26.9397 26.5096 27.9532 25.9212 28.9431 26.181C30.447 26.5762 32.6101 26.036 34.4518 24.8049C36.2909 23.5757 37.612 21.7895 37.8167 20.2543ZM27.2197 18.3373C24.6223 18.3373 22.5091 16.2332 22.5091 13.6466C22.5091 11.0602 24.6223 8.95588 27.2197 8.95588C29.8171 8.95588 31.9305 11.0602 31.9305 13.6466C31.9305 16.2332 29.8171 18.3373 27.2197 18.3373ZM27.2197 5.38091C22.6426 5.38091 18.9189 9.08894 18.9189 13.6466C18.9189 18.2044 22.6426 21.9124 27.2197 21.9124C31.7968 21.9124 35.5207 18.2044 35.5207 13.6466C35.5207 9.08894 31.7968 5.38091 27.2197 5.38091ZM10.0881 20.8739C11.3822 20.8739 12.614 20.4704 13.6503 19.7067C14.4471 19.1195 15.5721 19.2865 16.1619 20.0805C16.7519 20.8743 16.584 21.9941 15.7867 22.5815C14.1275 23.804 12.1569 24.4502 10.0881 24.4502C4.80134 24.4502 0.5 20.1674 0.5 14.9031C0.5 9.63873 4.80134 5.35588 10.0881 5.35588C12.1369 5.35588 14.092 5.99078 15.7417 7.19183C16.5423 7.7746 16.7167 8.89335 16.1315 9.69062C15.5462 10.4875 14.4228 10.6617 13.622 10.0788C12.5918 9.32866 11.3698 8.93208 10.0881 8.93208C6.78149 8.93208 4.09143 11.6106 4.09143 14.9031C4.09143 18.1954 6.78149 20.8739 10.0881 20.8739Z"
          fill="#006C30"/>
</svg>
