<svg xmlns="http://www.w3.org/2000/svg" width="2189.589" height="1019.609" viewBox="0 0 2189.589 1019.609"><g transform="translate(-530.513 16.973)"><path fill="#006C30" d="m629.665 1002.041c-22.049-2.207-41.376-6.927-61.868-15.11-21.695-8.662-30.956-14.854-35.575-23.787-3.593-6.947-2.763-9.414 14.869-44.201 9.034-17.825 17.878-34.148 19.653-36.273 6.516-7.804 16.818-8.91 29.434-3.161 9.562 4.358 28.725 10.85 38.185 12.938 4.131.912 11.824 1.588 18.06 1.588 32.9 0 57.447-16.486 74.155-49.804 6.053-12.071 12.468-31.986 16.168-50.196.615-3.025 1.545-7.525 2.067-10 2.204-10.442 6.057-32.657 8.412-48.5 1.39-9.35 2.971-19.7 3.513-23 .543-3.3 1.624-11.189 2.403-17.531 1.167-9.508 4.641-34.222 7.023-49.969 2.289-15.136 12.503-95.284 12.503-98.113 0-1.817-1.44-1.887-38.819-1.887-31.57 0-39.76-.28-43.862-1.498-9.542-2.834-13.498-7.957-13.453-17.42.041-8.553 11.668-71.249 14.096-76.007 1.11-2.178 3.51-5.096 5.333-6.486 7.29-5.561 7.465-5.581 49.7-5.613l39.073-.03.887-2.223c.488-1.222 1.402-6.948 2.031-12.723 1.426-13.088 32.492-244.318 34.573-257 4.753-28.97 11.988-52.286 23.428-75.5 12.59-25.548 24.214-41.405 42.014-57.313 25.701-22.97 57.979-39.113 91-45.509 45.1-8.736 87.837-5.274 130 10.533 24.23 9.084 32.111 13.623 35.11 20.224 3.946 8.689 3.337 10.577-17.589 54.565-14 29.429-16.346 33.253-22.116 36.046-6.269 3.035-10.589 2.332-24.008-3.905-24.7-11.479-43.53-15.124-62.398-12.076-15.001 2.423-29.105 9.478-39.732 19.874-14.514 14.2-22.69 29.656-29.654 56.061-5.058 19.174-38.787 263.5-37.279 267.432.551 1.434 7.204 1.588 67.277 1.554 62.718-.036 66.879.07 70.277 1.796 4.023 2.043 8.111 8.813 8.111 13.433 0 4.178-10.917 67.048-12.959 74.633-1.49 5.534-8.063 12.586-13.794 14.8-4.372 1.69-9.798 1.874-68.735 2.343l-63.988.51-.748 5c-.412 2.75-1.417 10.4-2.234 17-2.336 18.876-5.299 42.002-6.918 54-.816 6.05-2.437 18.2-3.602 27-1.165 8.8-3.664 27.025-5.553 40.5-1.889 13.475-4.597 33.05-6.019 43.5-8.643 63.546-18.114 102.913-33.44 139-9.268 21.82-16.692 34.971-28.726 50.88-9.592 12.681-12.088 15.553-21.243 24.44-30.687 29.789-63.721 46.464-106.542 53.78-10.586 1.808-45.981 2.66-58.5 1.406zm988.999-103.105c-22.614-1.293-43.85-5.564-67.5-13.575-10.821-3.665-10.954-3.72-26.5-11.073-21.14-9.998-37.482-21.767-56.584-40.75-18.996-18.88-29.23-33.164-42.274-59.003-9.021-17.871-12.726-28.81-17.61-52-.927-4.4-2.072-9.8-2.545-12-2.778-12.924-4.244-34.624-3.647-54 .787-25.577 3.172-41.331 10.225-67.524 17.792-66.077 62.611-126.438 118.293-159.314 32.984-19.474 57.274-28.087 97.941-34.73 18.521-3.025 52.991-3.737 71.701-1.481 38.078 4.59 67.549 14.422 99.036 33.038 18.316 10.829 42.994 32.438 57.113 50.01 10.913 13.582 24.554 36.648 31.048 52.5 10.604 25.884 17.446 58.001 18.894 88.694.463 9.82.104 17.12-1.541 31.306-3.945 34.014-10.113 58.987-20.698 83.812-8.831 20.71-11.798 26.509-23.63 46.188-9.947 16.547-32.516 42.55-51.094 58.868-21.436 18.829-56.177 38.807-81.628 46.939-22.483 7.184-23.073 7.327-50 12.146-11.062 1.98-41.103 2.971-59 1.948zm42.194-110.374c34.831-5.25 67.694-27.426 88.958-60.027 14.987-22.978 25.104-50.138 29.287-78.628 1.925-13.106 1.945-20.561.103-37.872-3.734-35.094-14.321-59.669-34.522-80.13-23.518-23.822-57.893-35.613-93.212-31.973-45.966 4.738-82.81 31.866-104.713 77.1-11.871 24.516-15.358 36.161-20.089 67.086-2.846 18.604 1.936 57.414 8.922 72.418.512 1.1 2.182 4.925 3.71 8.5 9.01 21.072 24.399 39.67 40.711 49.202 9.24 5.4 20.663 10.528 25.326 11.37 2.103.38 4.624 1.104 5.602 1.61 5.207 2.69 35.568 3.508 49.917 1.345zm-443.694 104.846c-3.967-.506-13.771-2.274-20-3.605-7.564-1.617-24.426-7.637-29.5-10.533-30.968-17.671-48.005-40.089-55.277-72.735-3.434-15.418-3.915-21.028-3.47-40.5.52-22.73 1.715-31.096 9.238-64.678 3.059-13.652 8.036-36.522 11.061-50.822 3.024-14.3 7.283-34.325 9.464-44.5 2.18-10.175 5.113-23.9 6.518-30.5 1.405-6.6 8.404-41.025 15.553-76.5 7.149-35.475 14.79-73.05 16.981-83.5 4.725-22.539 9.658-46.973 13.93-69 1.707-8.8 7.32-36.25 12.473-61 5.153-24.75 10.558-51.075 12.01-58.5 4.246-21.7 6.073-26.638 12.094-32.684 8.467-8.503 8.445-8.5 61.652-8.13 50.528.35 48.854.12 54.471 7.485 2.547 3.34 2.798 4.407 2.756 11.751-.048 8.557-5.876 39.991-16.979 91.578-3.036 14.105-7.575 36.39-9.471 46.5-.413 2.2-2.136 10.75-3.829 19-1.693 8.25-5.335 26.025-8.093 39.5-2.758 13.475-7.08 34.4-9.603 46.5-2.523 12.1-7.462 36.175-10.976 53.5-3.513 17.325-8.453 41.4-10.977 53.5-2.523 12.1-7.506 36.4-11.073 54-8.143 40.186-12.785 61.535-14.902 68.537-2.13 7.045-9.187 39.82-11.08 51.463-1.997 12.274-1.915 27.898.178 34.381 7.354 22.77 38.884 27.884 83.375 13.523 23.82-7.69 31.073-4.406 31.125 14.086.013 4.631-.218 8.812-.513 9.289-.295.477-1.706 8.26-3.136 17.295-3.156 19.948-6.076 36.607-7.664 43.733-3.436 15.406-22.723 24.107-67.782 30.579-8.707 1.25-50.92 1.963-58.555.988zm854.7-8.071c-6.446-1.929-14.328-8.665-16.505-14.106-.84-2.1-4.079-16.392-7.196-31.758-3.117-15.366-7.033-33.788-8.702-40.938-3.518-15.071-3.8-16.364-11.19-51.5-3.066-14.575-8.555-38.2-12.197-52.5-3.643-14.3-6.993-27.814-7.446-30.031-.452-2.217-1.77-7.617-2.929-12-1.158-4.383-3.458-14.044-5.11-21.47-1.651-7.424-4.093-18.224-5.425-24-1.332-5.775-3.37-14.775-4.529-20-1.158-5.225-5.466-24.35-9.572-42.5-4.106-18.15-9.293-41.325-11.526-51.5-2.234-10.175-6.066-27.5-8.516-38.5-5.577-25.033-6.262-31.803-3.868-38.23 2.122-5.694 4.775-8.831 9.535-11.273 7.092-3.638 14.042-4.123 54.548-3.804l39.073.307 5.86 3c3.94 2.017 6.915 4.475 9.078 7.5 3.464 4.846 3.587 5.408 19.897 91 2.987 15.675 6.99 36.375 8.898 46 1.906 9.625 4.606 23.575 6 31 4.672 24.897 6.542 34.442 8.622 44 1.137 5.225 3.153 14.9 4.482 21.5 5.6 27.827 15.352 70.267 17.448 75.938.568 1.537 1.071.854 2.43-3.302.943-2.882 2.772-7.579 4.065-10.438 1.293-2.859 3.301-7.336 4.463-9.948 1.161-2.613 3.063-6.888 4.226-9.5 2.261-5.081 15.932-32.518 28.028-56.25 4.064-7.975 9.15-18.325 11.302-23 2.151-4.675 6.252-13.45 9.113-19.5 2.86-6.05 7.103-15.5 9.429-21 4.189-9.907 5.761-13.442 12.01-27 1.774-3.85 8.527-18.925 15.006-33.5 11.119-25.012 13.682-30.726 19.736-44 1.38-3.025 4.648-10.45 7.263-16.5 2.614-6.05 5.883-13.475 7.265-16.5 1.38-3.025 3.436-7.557 4.567-10.071 2.47-5.493 8.38-11.797 14.329-15.283 7.022-4.115 15.193-4.796 53.477-4.456l34.862.31 4.875 2.49c9.74 4.974 11.703 9.474 16.148 37.01 1.376 8.525 4.065 24.5 5.976 35.5 1.91 11 6.419 38 10.019 60 3.6 22 7.624 45.85 8.942 53 1.317 7.15 3.373 18.625 4.568 25.5 3.773 21.715 7.903 43.571 14.031 74.247 3.268 16.361 5.942 30.648 5.942 31.75 0 2.466 1.86 2.646 2.616.253.831-2.629 5.538-13.466 10.966-25.25 4.47-9.702 11.974-24.676 39.594-79 12.136-23.871 14.202-28.271 46.021-98 12.478-27.344 12.714-27.862 18.031-39.5 7.387-16.17 10.113-22.097 14.256-31 2.047-4.4 5.272-11.822 7.167-16.493 6.2-15.29 11.3-21.964 20.133-26.349 9.326-4.63 11.41-4.807 52.734-4.473l38.983.315 5.955 3c6.988 3.52 9.208 6.249 10.42 12.805 1.595 8.637 2.182 7.234-32.916 78.695-27.638 56.272-58.244 116.781-65.096 128.697-3.225 5.609-5.864 10.455-5.864 10.77 0 .315-1.05 2.251-2.335 4.303-1.285 2.051-4.286 7.33-6.67 11.73-2.384 4.4-5.217 9.575-6.295 11.5-1.078 1.925-4.011 7.325-6.518 12-2.506 4.675-6.739 12.55-9.405 17.5-2.667 4.95-10.86 21.15-18.207 36-12.559 25.386-18.478 37.583-31.055 64-2.88 6.05-8.058 16.85-11.505 24-10.024 20.79-14.961 31.342-19.431 41.531-7.541 17.186-13.239 23.239-25.418 27-6.073 1.876-9.16 2.006-46.155 1.946-37.665-.07-45.43-.345-53.25-5.52-3.834-2.537-9.245-9.133-10.827-13.196-.479-1.231-2.909-13.156-5.4-26.5-2.49-13.344-5.628-30.112-6.973-37.262-2.449-13.024-4.315-23.43-9.057-50.5-1.397-7.975-2.993-16.525-3.548-19-2.026-9.04-7.916-39.005-10.43-53.066-1.42-7.939-4.11-22.534-5.977-32.434-1.867-9.9-5.023-27.225-7.013-38.5-4.54-25.713-4.661-26.028-7.517-19.5-1.203 2.75-4.463 9.725-7.244 15.5-2.781 5.775-6.578 14.05-8.436 18.39-1.859 4.339-5.863 12.562-8.899 18.272-5.918 11.133-21.437 42.072-21.437 42.738 0 .221-1.858 4.384-4.128 9.251-6.378 13.671-11.13 24.666-16.79 38.849-2.853 7.15-6.289 15.375-7.635 18.278-1.346 2.902-2.447 5.443-2.447 5.647 0 .204-2.528 5.704-5.617 12.223-5.927 12.506-24.203 53.609-35.062 78.853-3.549 8.25-7.616 16.997-9.038 19.437-4.05 6.948-9.86 12.624-15.556 15.2-5.217 2.359-5.312 2.364-49.227 2.557-37.666.166-44.763-.034-49.3-1.392z"/></g></svg>